<svg fill="#458FD6" xmlns="http://www.w3.org/2000/svg" xmlns:xlink="http://www.w3.org/1999/xlink" version="1.1" x="0px" y="0px" viewBox="0 0 283.46 283.46" enable-background="new 0 0 283.46 283.46" xml:space="preserve"><path fill="#458FD6" d="M71.699,172.416c-12.92,0-23.388,10.469-23.388,23.379c0,12.912,10.468,23.381,23.388,23.381  c12.914,0,23.376-10.469,23.376-23.381C95.075,182.884,84.606,172.416,71.699,172.416z M71.699,207.231  c-6.312,0-11.431-5.122-11.431-11.437c0-6.32,5.119-11.43,11.431-11.43s11.429,5.118,11.429,11.43  C83.125,202.106,78.009,207.231,71.699,207.231z M64.064,195.794l15.269-0.014c0,4.229-3.42,7.652-7.634,7.652  C67.482,203.434,64.064,200.011,64.064,195.794z M112.365,66.962c-0.104-0.391-0.067-0.741,0.1-0.959  c0.19-0.249,0.521-0.301,0.763-0.301h144.618c0.242,0,0.57,0.052,0.762,0.301c0.168,0.219,0.204,0.568,0.1,0.959l-5.761,21.5  c-0.282,1.052-1.436,1.976-2.469,1.976H120.594c-1.033,0-2.188-0.923-2.469-1.976L112.365,66.962z M272.662,191.569h-2.903V85.467  c0-1.647-1.345-2.983-3-2.983h-9.351l-1.793,6.693c-0.604,2.257-2.861,4.024-5.139,4.024H120.594c-2.276,0-4.534-1.768-5.14-4.024  l-1.794-6.693h-5.331c-1.509,0-2.965,1.072-2.965,2.553v105.121c0,0.782-0.635,1.418-1.417,1.418c-0.783,0-1.418-0.636-1.418-1.418  V82.498c-2.35,0-4.926,0-7.766,0c-39.603,0-45.376,21.702-45.376,21.702l-8.12,30.035c-0.004,0-0.007,0.001-0.011,0.002  l-12.491,46.194c-0.171,0.632-0.743,1.048-1.367,1.048c-0.123,0-0.248-0.017-0.371-0.05c-0.756-0.204-1.203-0.982-0.998-1.737  l12.083-44.683c-9.345,2.306-21.367,5.367-21.367,5.367c-1.76,0.676-2.816,1.265-3,3l-2.589,41.865c0,1.656,1.345,3,3,3h17.183  v3.291H9.751c-1.657,0-3,1.344-3,3v2.952c0,1.657,1.343,3,3,3l31.012-0.001v-0.001c1.792-0.021,3.238-1.478,3.238-3.272  c0-0.033-0.006-0.976-0.006-1.416c0-15.293,12.399-27.694,27.702-27.694c15.29,0,27.69,12.401,27.69,27.694  c0,0.537-0.001,1.399,0,1.399c0,0.007-0.001,0.011-0.001,0.017c0,1.779,1.419,3.223,3.186,3.271c0,0.001,84.939,0.003,84.939,0.003  v-0.001c1.792-0.021,3.238-1.478,3.238-3.272c0-0.033-0.007-0.976-0.007-1.416c0-15.293,12.4-27.694,27.703-27.694  c15.29,0,27.69,12.401,27.69,27.694c0,0.537-0.001,1.399,0,1.399c0,0.007-0.001,0.011-0.001,0.017c0,1.779,1.419,3.223,3.186,3.271  c0,0.001,23.338,0.024,23.338,0.024c1.656,0,3-1.344,3-3v-2.938C275.662,192.912,274.318,191.569,272.662,191.569z M73.632,136.325  h-4.848l-10.951-10.527c-0.812-0.78-1.929-0.894-2.541-0.256c-0.603,0.627-0.441,1.761,0.355,2.528l8.587,8.255h-6.996  c-2.47,0-3.864-1.296-4.477-2.068c-0.833-1.052-1.197-2.355-0.955-3.384l5.092-19.57c0.265-1.008,1.302-1.828,2.31-1.828h14.424  V136.325L73.632,136.325z M76.792,109.474h17.871c1.009,0,1.827,0.82,1.827,1.828v23.195c0,1.008-0.818,1.827-1.827,1.827H76.792  V109.474z M92.515,150.255c-1.392,0-2.422-0.537-3.097-1.34H79.75c-3.578,0-3.578-5.354,0-5.354h9.656  c0.668-0.797,1.699-1.335,3.09-1.335C97.865,142.227,97.865,150.255,92.515,150.255z M255.438,144.882  c0,2.396-1.95,4.348-4.347,4.348H120.525c-2.396,0-4.346-1.949-4.346-4.348v-43.469c0-2.396,1.949-4.347,4.346-4.347h130.566  c2.396,0,4.347,1.95,4.347,4.347V144.882z M211.028,195.794l15.27-0.014c0,4.229-3.42,7.652-7.636,7.652  C214.446,203.434,211.028,200.011,211.028,195.794z M118.872,134.089h133.874v10.793c0,0.912-0.741,1.654-1.653,1.654H120.525  c-0.912,0-1.653-0.742-1.653-1.654V134.089L118.872,134.089z M218.662,172.416c-12.919,0-23.387,10.469-23.387,23.379  c0,12.912,10.468,23.381,23.387,23.381c12.914,0,23.377-10.469,23.377-23.381C242.039,182.884,231.57,172.416,218.662,172.416z   M218.662,207.231c-6.311,0-11.43-5.122-11.43-11.437c0-6.32,5.119-11.43,11.43-11.43c6.312,0,11.43,5.118,11.43,11.43  C230.09,202.106,224.972,207.231,218.662,207.231z"></path></svg>